HIERARCHY
ROOT Hips
{
	OFFSET 0.000000 0.000000 0.000000
	CHANNELS 6 Xposition Yposition Zposition Xrotation Yrotation Zrotation
	JOINT LeftUpLeg_virtual
	{
		OFFSET 0.000000 0.000000 0.000000
		CHANNELS 3 Xrotation Yrotation Zrotation
		JOINT LeftUpLeg
		{
			OFFSET 10.205400 -3.823500 0.155100
			CHANNELS 3 Xrotation Yrotation Zrotation
			JOINT LeftLeg
			{
				OFFSET 0.708757 -12.982077 0.567790
				CHANNELS 3 Xrotation Yrotation Zrotation
				JOINT LeftFoot
				{
					OFFSET -0.708756 -10.717838 -2.184338
					CHANNELS 3 Xrotation Yrotation Zrotation
					JOINT LeftToeBase
					{
						OFFSET 0.108149 -7.191104 7.560241
						CHANNELS 3 Xrotation Yrotation Zrotation
						JOINT LeftToe_End
						{
							OFFSET 0.070230 0.081724 4.490308
							CHANNELS 3 Xrotation Yrotation Zrotation
							End Site
							{
								OFFSET 0 0 0
							}
						}
					}
				}
			}
		}
	}
	JOINT RightUpLeg_virtual
	{
		OFFSET 0.000000 0.000000 0.000000
		CHANNELS 3 Xrotation Yrotation Zrotation
		JOINT RightUpLeg
		{
			OFFSET -10.205400 -3.823500 0.005500
			CHANNELS 3 Xrotation Yrotation Zrotation
			JOINT RightLeg
			{
				OFFSET -0.708756 -12.982134 0.610632
				CHANNELS 3 Xrotation Yrotation Zrotation
				JOINT RightFoot
				{
					OFFSET 0.708754 -10.717769 -1.945823
					CHANNELS 3 Xrotation Yrotation Zrotation
					JOINT RightToeBase
					{
						OFFSET -0.108140 -7.191069 7.372968
						CHANNELS 3 Xrotation Yrotation Zrotation
						JOINT RightToe_End
						{
							OFFSET -0.070227 0.081735 4.479403
							CHANNELS 3 Xrotation Yrotation Zrotation
							End Site
							{
								OFFSET 0 0 0
							}
						}
					}
				}
			}
		}
	}
	JOINT Spine_virtual
	{
		OFFSET 0.000000 0.000000 0.000000
		CHANNELS 3 Xrotation Yrotation Zrotation
		JOINT Spine
		{
			OFFSET 0.000000 6.876099 0.125700
			CHANNELS 3 Xrotation Yrotation Zrotation
			JOINT Spine1
			{
				OFFSET 0.000000 5.730043 0.104720
				CHANNELS 3 Xrotation Yrotation Zrotation
				JOINT Spine1_split
				{
					OFFSET 0.000000 5.730043 0.104720
					CHANNELS 3 Xrotation Yrotation Zrotation
					JOINT Spine2
					{
						OFFSET 0.000000 5.730043 0.104720
						CHANNELS 3 Xrotation Yrotation Zrotation
						JOINT Neck_virtual
						{
							OFFSET 0.000000 0.000000 0.000000
							CHANNELS 3 Xrotation Yrotation Zrotation
							JOINT Neck
							{
								OFFSET 0.000000 10.314075 0.188496
								CHANNELS 3 Xrotation Yrotation Zrotation
								JOINT Head
								{
									OFFSET 0.000000 7.643700 -2.377400
									CHANNELS 3 Xrotation Yrotation Zrotation
									JOINT HeadTop_End
									{
										OFFSET 0.000000 43.788605 -13.619600
										CHANNELS 3 Xrotation Yrotation Zrotation
										End Site
										{
											OFFSET 0 0 0
										}
									}
								}
							}
						}
						JOINT LeftShoulder_virtual
						{
							OFFSET 0.000000 0.000000 0.000000
							CHANNELS 3 Xrotation Yrotation Zrotation
							JOINT LeftShoulder
							{
								OFFSET 2.196100 4.412489 0.087492
								CHANNELS 3 Xrotation Yrotation Zrotation
								JOINT LeftShoulder_split
								{
									OFFSET 2.196100 4.412489 0.087492
									CHANNELS 3 Xrotation Yrotation Zrotation
									JOINT LeftArm
									{
										OFFSET 8.771219 -2.981674 -0.026999
										CHANNELS 3 Xrotation Yrotation Zrotation
										JOINT LeftForeArm
										{
											OFFSET 8.512804 0.000000 -0.000000
											CHANNELS 3 Xrotation Yrotation Zrotation
											JOINT LeftHand
											{
												OFFSET 18.484802 0.000000 -0.000000
												CHANNELS 3 Xrotation Yrotation Zrotation
												End Site
												{
													OFFSET 0 0 0
												}
											}
										}
									}
								}
							}
						}
						JOINT RightShoulder_virtual
						{
							OFFSET 0.000000 0.000000 0.000000
							CHANNELS 3 Xrotation Yrotation Zrotation
							JOINT RightShoulder
							{
								OFFSET -2.196100 4.412496 0.070690
								CHANNELS 3 Xrotation Yrotation Zrotation
								JOINT RightShoulder_split
								{
									OFFSET -2.196100 4.412496 0.070690
									CHANNELS 3 Xrotation Yrotation Zrotation
									JOINT RightArm
									{
										OFFSET -8.771282 -2.981682 -0.094208
										CHANNELS 3 Xrotation Yrotation Zrotation
										JOINT RightForeArm
										{
											OFFSET -8.494598 0.000000 0.000000
											CHANNELS 3 Xrotation Yrotation Zrotation
											JOINT RightHand
											{
												OFFSET -18.483803 0.000000 0.000001
												CHANNELS 3 Xrotation Yrotation Zrotation
												End Site
												{
													OFFSET 0 0 0
												}
											}
										}
									}
								}
							}
						}
					}
				}
			}
		}
	}
}
MOTION
Frames: 11
Frame Time: 0.03333333
-0.382347 27.886803 -2.006283 0.000000 0.000000 0.000000 7.177603 -55.900693 7.561669 -43.725498 14.666349 31.898913 52.117034 -8.669342 -10.856895 -20.024851 17.070359 -7.616837 -0.366580 1.376234 -0.905989 0.000000 0.000000 0.000000 6.801347 -53.183541 6.828667 -18.628576 -11.784084 -28.055591 56.280998 28.739817 0.513078 -50.500288 -20.337682 18.171245 -2.553851 8.698062 -14.156615 0.000000 0.000000 0.000000 4.986152 -51.009810 3.203629 7.287162 -2.179118 0.949974 3.980399 4.929070 -1.908970 -0.178605 -0.499648 -0.036228 0.000000 0.000000 0.000000 17.576399 6.805432 -1.654834 -2.445115 14.978496 10.861608 -31.786912 -1.281522 31.859493 0.000000 0.000000 0.000000 12.985551 6.679814 -3.266804 -20.130126 -1.426535 -8.430396 -5.014833 1.235327 -0.918691 18.503554 -20.728702 -10.307611 11.260420 -63.534952 -0.457362 0.000000 0.000000 0.000000 16.274039 5.724607 -5.958357 -21.674721 18.834544 12.053330 -11.100198 -10.122917 -4.626552 -9.180005 -1.318103 49.258307 78.230746 51.553008 -45.009242 0.000000 0.000000 0.000000 
-0.349532 27.888433 -1.977103 0.000000 0.000000 0.000000 7.203770 -56.486320 7.843057 -44.030073 14.802318 31.726977 52.593604 -8.499100 -10.638052 -19.830380 17.016875 -7.655944 -0.399163 1.393801 -0.957388 0.000000 0.000000 0.000000 7.043682 -54.007624 7.168965 -18.841920 -12.390628 -27.979501 56.110185 28.702603 0.646832 -50.816307 -20.036010 17.345996 -2.010566 8.630596 -14.049348 0.000000 0.000000 0.000000 5.477188 -51.502584 4.100034 6.831280 -2.094307 0.758588 3.828779 4.956210 -1.937050 -0.116045 -0.528871 0.027652 0.000000 0.000000 0.000000 17.695668 6.808262 -1.593322 -1.566600 15.018635 10.588482 -32.091377 -1.577873 32.043218 0.000000 0.000000 0.000000 13.012830 6.748899 -3.253101 -19.818649 -1.811147 -8.094898 -4.817412 0.411662 -1.706436 19.459813 -21.799114 -10.919330 10.516716 -62.985641 -0.362843 0.000000 0.000000 0.000000 16.136257 5.596598 -6.087898 -20.954122 18.574834 12.007145 -9.723693 -9.065377 -3.617722 -9.094018 -1.368139 49.059995 76.687588 51.056187 -43.619999 0.000000 0.000000 0.000000 
-0.348924 27.898205 -1.956308 0.000000 0.000000 0.000000 7.138128 -56.839311 7.933734 -44.404006 14.801145 31.734650 52.858052 -8.303316 -10.404177 -19.720670 16.568637 -7.599414 -0.527699 1.353745 -0.906159 0.000000 0.000000 0.000000 7.254728 -54.687907 7.470195 -19.318698 -12.990768 -28.040459 56.370306 28.814816 0.731545 -50.692059 -19.708536 17.096266 -2.986685 8.690318 -14.184879 0.000000 0.000000 0.000000 5.474179 -51.926773 4.670125 6.321180 -1.724144 0.605131 3.614381 5.166062 -1.894443 -0.075137 -0.417894 0.064767 0.000000 0.000000 0.000000 17.298912 6.948078 -1.649118 0.101747 14.693021 10.152747 -32.225307 -2.396266 31.572604 0.000000 0.000000 0.000000 12.734142 7.029445 -3.221203 -19.499046 -2.814857 -7.636081 -4.466376 -0.452968 -1.844807 20.483249 -23.752017 -12.094584 10.084018 -59.761717 0.181772 0.000000 0.000000 0.000000 16.162540 5.721822 -6.129734 -19.842275 17.964461 11.027428 -8.474092 -8.088554 -2.691359 -8.882054 -0.899192 48.497297 75.492059 51.463829 -43.088385 0.000000 0.000000 0.000000 
-0.378683 27.903610 -1.962447 0.000000 0.000000 0.000000 7.049431 -56.858688 7.828409 -45.001193 14.570119 32.069080 52.954245 -8.223888 -10.303328 -19.344617 15.768482 -7.894993 -1.073836 1.282010 -0.708563 0.000000 0.000000 0.000000 7.279417 -54.978990 7.578248 -19.917040 -13.508333 -28.177165 56.739829 29.034909 0.724317 -50.680591 -19.359918 17.034242 -4.780241 8.799344 -14.566727 0.000000 0.000000 0.000000 4.997288 -52.202016 4.808184 6.011247 -1.212531 0.496041 3.410028 5.429305 -1.730561 -0.059144 -0.264253 0.046558 0.000000 0.000000 0.000000 16.546949 7.162821 -1.751674 2.170122 14.082573 9.762540 -32.351345 -3.472073 30.431372 0.000000 0.000000 0.000000 12.240662 7.371419 -3.069108 -19.172430 -4.385747 -7.055190 -4.347887 -1.031161 -2.051392 21.231687 -26.228150 -13.513802 9.601378 -54.533825 0.800473 0.000000 0.000000 0.000000 16.210836 6.011255 -5.978485 -18.312627 17.065026 9.152596 -7.816839 -7.662105 -2.077639 -8.525796 -0.110966 47.904911 74.803692 52.681905 -43.508527 0.000000 0.000000 0.000000 
-0.424190 27.900297 -2.002300 0.000000 0.000000 0.000000 6.938951 -56.681459 7.580596 -45.923808 13.951592 32.648700 53.206002 -8.297955 -10.353572 -18.403190 14.777432 -8.688896 -1.924833 1.217272 -0.389198 0.000000 0.000000 0.000000 7.179352 -54.912986 7.534565 -20.465277 -13.890983 -28.280871 57.273643 29.280048 0.592268 -51.211471 -18.979074 16.690158 -5.985548 8.809829 -15.242303 0.000000 0.000000 0.000000 4.365889 -52.122342 4.761519 5.954637 -0.760668 0.396378 3.240470 5.580691 -1.440669 -0.051825 -0.118831 -0.005731 0.000000 0.000000 0.000000 15.676061 7.347427 -1.749538 4.384971 13.339453 9.536886 -32.733736 -4.451519 28.798977 0.000000 0.000000 0.000000 11.658121 7.601711 -2.796725 -18.785804 -6.367193 -6.467872 -4.193825 -0.345934 -2.829423 21.990465 -29.078233 -14.765551 8.757347 -48.247005 1.141291 0.000000 0.000000 0.000000 16.059426 6.331812 -5.559496 -16.436910 15.984285 6.711276 -7.437232 -7.215322 -1.717770 -8.268828 0.790681 47.758465 74.362441 54.222413 -44.421911 0.000000 0.000000 0.000000 
-0.479115 27.862114 -2.012251 0.000000 0.000000 0.000000 6.874585 -56.375603 7.292470 -47.084035 13.057171 33.252551 53.797285 -8.291836 -10.554344 -17.062557 13.897606 -9.541373 -2.375664 1.177527 -0.141140 0.000000 0.000000 0.000000 7.139236 -54.495327 7.455870 -20.935372 -14.082957 -28.335888 58.077495 29.519446 0.420399 -52.053760 -18.731474 16.259528 -6.092664 8.671641 -16.200381 0.000000 0.000000 0.000000 3.777962 -51.693378 4.729994 5.986332 -0.524926 0.263688 3.101382 5.524653 -1.093181 -0.008812 0.020375 -0.051776 0.000000 0.000000 0.000000 14.918827 7.436131 -1.584477 6.651836 12.623948 9.493184 -33.428664 -4.911458 26.955459 0.000000 0.000000 0.000000 11.126133 7.618502 -2.482910 -18.315876 -8.515577 -6.028824 -3.928934 0.948757 -4.178301 23.346789 -31.586032 -15.250311 7.614172 -41.479240 1.205330 0.000000 0.000000 0.000000 15.572686 6.575524 -4.892407 -14.320206 14.842131 3.975067 -7.030204 -6.164369 -1.654074 -8.314464 1.808614 48.533405 73.534049 55.406481 -45.051320 0.000000 0.000000 0.000000 
-0.566368 27.772835 -1.992265 0.000000 0.000000 0.000000 7.113877 -56.076143 7.210060 -48.093035 12.127672 33.514038 54.700618 -7.828195 -10.791567 -16.130492 13.392496 -9.541443 -2.168472 1.158889 -0.046892 0.000000 0.000000 0.000000 7.395248 -53.843781 7.526029 -21.299661 -14.048638 -28.263123 59.019630 29.814032 0.142245 -52.761548 -18.788770 16.417632 -5.853945 8.501920 -17.353629 0.000000 0.000000 0.000000 3.443015 -51.176442 4.766433 5.940471 -0.507845 0.103188 3.002348 5.302111 -0.767937 0.038907 0.129967 -0.084887 0.000000 0.000000 0.000000 14.392788 7.434129 -1.269633 8.975484 12.063853 9.567793 -34.747788 -4.625740 25.345002 0.000000 0.000000 0.000000 10.773936 7.425368 -2.197630 -17.776022 -10.550309 -5.702393 -4.044108 2.293568 -5.956744 26.102843 -33.254525 -14.531695 6.228513 -34.966727 1.053268 0.000000 0.000000 0.000000 14.701658 6.669093 -4.127911 -12.170389 13.834478 1.173083 -7.083760 -4.618462 -1.740943 -8.701655 3.177814 50.197581 71.405489 55.531234 -44.362451 0.000000 0.000000 0.000000 
-0.680811 27.652840 -1.944497 0.000000 0.000000 0.000000 7.786687 -55.805801 7.542061 -48.631633 11.435864 33.185591 55.578523 -6.816967 -10.919046 -16.092281 13.254184 -8.573650 -1.783463 1.171254 0.002123 0.000000 0.000000 0.000000 8.162731 -53.304237 7.962419 -21.415923 -13.766122 -27.977298 59.831474 30.093732 -0.338630 -53.323051 -19.217678 17.221704 -5.668718 8.384435 -18.564131 0.000000 0.000000 0.000000 3.680127 -50.747725 4.942790 5.621653 -0.633080 -0.010707 2.864509 5.069389 -0.554294 0.073738 0.160229 -0.083900 0.000000 0.000000 0.000000 14.087091 7.402080 -0.865352 11.373955 11.698214 9.629157 -36.855735 -3.814194 24.313064 0.000000 0.000000 0.000000 10.484851 7.174121 -2.036052 -17.225761 -12.160247 -5.566070 -4.821463 3.686943 -7.005676 29.873554 -34.074625 -12.794252 5.001168 -29.739511 0.912121 0.000000 0.000000 0.000000 13.711735 6.678365 -3.471668 -10.182330 12.986731 -1.562655 -7.342474 -3.127580 -1.696381 -9.264454 5.285457 52.435810 67.520661 54.051945 -41.875572 0.000000 0.000000 0.000000 
-0.801109 27.553244 -1.838883 0.000000 0.000000 0.000000 8.909801 -55.657555 8.409234 -48.643876 11.050936 32.385123 55.974312 -5.685123 -10.876548 -16.381915 13.120643 -7.748781 -2.122921 1.219587 0.253208 0.000000 0.000000 0.000000 9.315847 -52.946120 8.804220 -21.306463 -13.357905 -27.673959 60.270942 30.243897 -0.939771 -53.915116 -19.900613 18.037915 -4.826396 8.226104 -19.635759 0.000000 0.000000 0.000000 4.563447 -50.621390 5.240002 4.938792 -0.799156 -0.044240 2.642067 5.027053 -0.486710 0.131901 0.099985 -0.072802 0.000000 0.000000 0.000000 13.889947 7.434056 -0.526428 13.686580 11.492510 9.663716 -39.702319 -2.766779 24.172186 0.000000 0.000000 0.000000 10.149927 7.044806 -2.090589 -16.803300 -13.000113 -5.584757 -6.128138 4.427794 -7.169271 33.679349 -33.874241 -10.654712 4.364064 -26.952729 0.985682 0.000000 0.000000 0.000000 12.892061 6.734464 -3.095428 -8.539996 12.212618 -4.014714 -7.756092 -2.408961 -1.566752 -9.611332 8.507625 54.863457 62.777751 50.961769 -38.447668 0.000000 0.000000 0.000000 
-0.897792 27.491188 -1.699031 0.000000 0.000000 0.000000 10.293789 -55.569729 9.770295 -48.153110 10.872466 31.041451 55.824714 -4.560100 -10.792131 -16.705324 12.724453 -7.195588 -3.565727 1.224091 0.823640 0.000000 0.000000 0.000000 10.755248 -52.868150 10.097335 -21.177924 -12.964308 -27.631342 60.192470 30.163010 -1.499501 -54.664934 -20.702922 18.301658 -2.926826 7.964119 -20.376843 0.000000 0.000000 0.000000 5.925473 -50.515942 5.646093 4.027632 -0.902779 -0.094811 2.346000 5.240807 -0.560888 0.171282 -0.033159 -0.024374 0.000000 0.000000 0.000000 13.715836 7.618277 -0.402076 15.632251 11.359255 9.725874 -43.048968 -1.866900 25.044989 0.000000 0.000000 0.000000 9.803595 7.132342 -2.371440 -16.584374 -13.008077 -5.518418 -7.661608 4.872718 -6.586353 36.236677 -33.149538 -8.921571 4.253148 -27.096545 1.199399 0.000000 0.000000 0.000000 12.310648 6.941901 -3.043896 -7.373736 11.460240 -5.967786 -8.438383 -2.506249 -1.365351 -9.295187 12.995079 57.090836 58.262852 46.818181 -35.035831 0.000000 0.000000 0.000000 
-0.956903 27.470421 -1.554847 0.000000 0.000000 0.000000 11.572327 -55.337294 11.330764 -47.512223 10.773646 29.189107 55.493610 -3.577309 -10.728143 -16.684721 11.963819 -6.773179 -5.248641 1.174350 1.565450 0.000000 0.000000 0.000000 12.209743 -52.963076 11.700503 -21.085909 -12.639566 -28.112297 59.677583 29.879790 -1.842012 -55.285166 -21.616517 18.176006 -0.752658 7.746300 -20.704634 0.000000 0.000000 0.000000 7.487393 -50.221001 6.165604 3.134739 -0.995998 -0.202768 2.023981 5.645148 -0.752704 0.210265 -0.259179 0.043076 0.000000 0.000000 0.000000 13.544058 7.920575 -0.550304 16.801103 11.207738 9.820174 -46.381520 -1.406692 26.944212 0.000000 0.000000 0.000000 9.481363 7.384535 -2.828847 -16.627179 -12.367137 -5.180024 -9.119219 5.252095 -5.548647 36.495357 -32.424943 -8.024137 4.437007 -29.258191 1.216762 0.000000 0.000000 0.000000 11.984053 7.283663 -3.240428 -6.655326 10.639704 -7.337846 -9.134707 -2.967478 -0.890928 -7.851504 18.287500 58.797834 54.627976 42.703248 -32.171892 0.000000 0.000000 0.000000 
